<svg id="Ebene_1" data-name="Ebene 1" xmlns="http://www.w3.org/2000/svg" viewBox="0 0 119 26.63">
    <defs>
        <style>.cls-1{fill:#89c9ad;}.cls-2{fill:#ed6a87;}</style>
    </defs>
    <title>Logo</title>
    <path class="cls-1" d="M9.33,27V4.27H.84v-3H21.27v3H12.74V27Z" transform="translate(-0.84 -0.79)"/>
    <path class="cls-1"
          d="M24.36,27V1.23h3.17v9.25a7.07,7.07,0,0,1,5.59-2.57,7.47,7.47,0,0,1,3.6.82A4.79,4.79,0,0,1,38.91,11a10.37,10.37,0,0,1,.66,4.18V27H36.4V15.17a4.91,4.91,0,0,0-1-3.45,3.85,3.85,0,0,0-2.91-1.09,5.21,5.21,0,0,0-2.65.73,4.23,4.23,0,0,0-1.77,2,9.13,9.13,0,0,0-.52,3.45V27Z"
          transform="translate(-0.84 -0.79)"/>
    <path class="cls-1"
          d="M44.35,27V8.33H47.2v2.83a7.61,7.61,0,0,1,2-2.62,3.53,3.53,0,0,1,2-.63,6.15,6.15,0,0,1,3.25,1L53.4,11.87a4.48,4.48,0,0,0-2.32-.69,3,3,0,0,0-1.86.62A3.46,3.46,0,0,0,48,13.54a12.32,12.32,0,0,0-.53,3.69V27Z"
          transform="translate(-0.84 -0.79)"/>
    <rect class="cls-1" x="55.55" y="7.54" width="3.16" height="18.67"/>
    <path class="cls-1"
          d="M65.13,27V10.79h-2.8V8.33h2.8v-2a8.81,8.81,0,0,1,.33-2.8,4.06,4.06,0,0,1,1.61-2A5.8,5.8,0,0,1,70.3.79a15.58,15.58,0,0,1,3,.32l-.48,2.76a10.25,10.25,0,0,0-1.86-.18,2.78,2.78,0,0,0-2,.62,3.31,3.31,0,0,0-.6,2.3V8.33h3.64v2.46H68.27V27Z"
          transform="translate(-0.84 -0.79)"/>
    <path class="cls-1"
          d="M81.28,24.17,81.74,27a11.64,11.64,0,0,1-2.39.29,5.42,5.42,0,0,1-2.67-.55,3,3,0,0,1-1.34-1.43A11.26,11.26,0,0,1,75,21.53V10.79H72.63V8.33H75V3.71l3.15-1.9V8.33h3.18v2.46H78.1V21.71a5.54,5.54,0,0,0,.17,1.74,1.28,1.28,0,0,0,.54.61,2,2,0,0,0,1.08.23A10.53,10.53,0,0,0,81.28,24.17Z"
          transform="translate(-0.84 -0.79)"/>
    <path class="cls-1"
          d="M97.15,21l3.27.4a8,8,0,0,1-2.86,4.45,8.66,8.66,0,0,1-5.34,1.58,8.54,8.54,0,0,1-6.5-2.52,9.86,9.86,0,0,1-2.4-7.08c0-3.14.81-5.57,2.43-7.31A8.21,8.21,0,0,1,92,7.91a8,8,0,0,1,6.12,2.55q2.37,2.55,2.37,7.17c0,.19,0,.47,0,.84H86.59a7.21,7.21,0,0,0,1.74,4.72,5.16,5.16,0,0,0,3.9,1.63,4.83,4.83,0,0,0,3-.91A6.1,6.1,0,0,0,97.15,21ZM86.77,15.87H97.19A6.29,6.29,0,0,0,96,12.34a4.83,4.83,0,0,0-3.92-1.83A5,5,0,0,0,88.41,12,5.73,5.73,0,0,0,86.77,15.87Z"
          transform="translate(-0.84 -0.79)"/>
    <path class="cls-1"
          d="M104.36,27V8.33h2.85v2.83a7.86,7.86,0,0,1,2-2.62,3.53,3.53,0,0,1,2-.63,6.15,6.15,0,0,1,3.25,1l-1.09,2.94a4.48,4.48,0,0,0-2.32-.69,3,3,0,0,0-1.86.62,3.46,3.46,0,0,0-1.18,1.74,12.33,12.33,0,0,0-.52,3.69V27Z"
          transform="translate(-0.84 -0.79)"/>
    <path class="cls-2"
          d="M117.23,21.39a2.5,2.5,0,0,1,1.85.78,2.54,2.54,0,0,1,.77,1.86,2.58,2.58,0,0,1-.77,1.87,2.56,2.56,0,0,1-3.7,0,2.58,2.58,0,0,1-.77-1.87,2.54,2.54,0,0,1,.77-1.86A2.5,2.5,0,0,1,117.23,21.39Z"
          transform="translate(-0.84 -0.79)"/>
    <path class="cls-2"
          d="M58,1a1.92,1.92,0,0,1,1.41.58A1.93,1.93,0,0,1,60,3a2,2,0,0,1-.59,1.42,2,2,0,0,1-2.82,0A2,2,0,0,1,56,3a1.93,1.93,0,0,1,.59-1.41A1.92,1.92,0,0,1,58,1Z"
          transform="translate(-0.84 -0.79)"/>
</svg>